<?xml version="1.0" encoding="UTF-8" standalone="no"?>
<svg
   xmlns:dc="http://purl.org/dc/elements/1.1/"
   xmlns:cc="http://creativecommons.org/ns#"
   xmlns:rdf="http://www.w3.org/1999/02/22-rdf-syntax-ns#"
   xmlns:svg="http://www.w3.org/2000/svg"
   xmlns="http://www.w3.org/2000/svg"
   xmlns:xlink="http://www.w3.org/1999/xlink"
   xmlns:sodipodi="http://sodipodi.sourceforge.net/DTD/sodipodi-0.dtd"
   xmlns:inkscape="http://www.inkscape.org/namespaces/inkscape"
   width="108"
   height="22"
   viewBox="0 0 108 22"
   version="1.1"
   id="svg6"
   sodipodi:docname="brand.svg"
   inkscape:version="0.92.3 (2405546, 2018-03-11)"
   style="fill:none">
  <metadata
     id="metadata12">
    <rdf:RDF>
      <cc:Work
         rdf:about="">
        <dc:format>image/svg+xml</dc:format>
        <dc:type
           rdf:resource="http://purl.org/dc/dcmitype/StillImage" />
        <dc:title />
      </cc:Work>
    </rdf:RDF>
  </metadata>
  <defs
     id="defs10">
    <linearGradient
       inkscape:collect="always"
       id="linearGradient81">
      <stop
         style="stop-color:#335eea;stop-opacity:1;"
         offset="0"
         id="stop77" />
      <stop
         style="stop-color:#335eea;stop-opacity:0;"
         offset="1"
         id="stop79" />
    </linearGradient>
    <linearGradient
       id="SVGID_1_"
       gradientUnits="userSpaceOnUse"
       x1="144.9431"
       y1="331.4823"
       x2="309.99509"
       y2="37.7019">
      <stop
         offset="0.1672"
         style="stop-color:#0063FF"
         id="stop3792" />
      <stop
         offset="0.464"
         style="stop-color:#0098FF"
         id="stop3794" />
      <stop
         offset="0.8265"
         style="stop-color:#00D4FF"
         id="stop3796" />
      <stop
         offset="1"
         style="stop-color:#00EBFF"
         id="stop3798" />
    </linearGradient>
    <linearGradient
       id="SVGID_3_"
       gradientUnits="userSpaceOnUse"
       x1="242.71999"
       y1="311.85999"
       x2="350.8494"
       y2="-10.393137"
       gradientTransform="matrix(0.08728569,0,0,0.08728569,-11.234199,-6.03337)">
      <stop
         offset="0"
         style="stop-color:#4671AB"
         id="stop3814" />
      <stop
         offset="0.4062"
         style="stop-color:#97AFD0"
         id="stop3816" />
      <stop
         offset="0.8124"
         style="stop-color:#E1E8F2"
         id="stop3818" />
      <stop
         offset="1"
         style="stop-color:#FFFFFF"
         id="stop3820" />
    </linearGradient>
    <linearGradient
       id="SVGID_4_"
       gradientUnits="userSpaceOnUse"
       x1="114.2048"
       y1="220.5916"
       x2="270.14111"
       y2="304.01971"
       gradientTransform="matrix(0.08728569,0,0,0.08728569,-11.234199,-6.03337)">
      <stop
         offset="0"
         style="stop-color:#4671AB"
         id="stop3825" />
      <stop
         offset="0.4062"
         style="stop-color:#97AFD0"
         id="stop3827" />
      <stop
         offset="0.8124"
         style="stop-color:#E1E8F2"
         id="stop3829" />
      <stop
         offset="1"
         style="stop-color:#FFFFFF"
         id="stop3831" />
    </linearGradient>
    <linearGradient
       id="SVGID_5_"
       gradientUnits="userSpaceOnUse"
       x1="112.9219"
       y1="222.9903"
       x2="268.85791"
       y2="306.41821"
       gradientTransform="matrix(0.08728569,0,0,0.08728569,-11.234199,-6.03337)">
      <stop
         offset="0"
         style="stop-color:#4671AB"
         id="stop3836" />
      <stop
         offset="0.4062"
         style="stop-color:#97AFD0"
         id="stop3838" />
      <stop
         offset="0.8124"
         style="stop-color:#E1E8F2"
         id="stop3840" />
      <stop
         offset="1"
         style="stop-color:#FFFFFF"
         id="stop3842" />
    </linearGradient>
    <linearGradient
       inkscape:collect="always"
       xlink:href="#linearGradient81"
       id="linearGradient83"
       x1="5.7278137"
       y1="14.717523"
       x2="14.935141"
       y2="13.432779"
       gradientUnits="userSpaceOnUse"
       gradientTransform="matrix(1.0602418,0,0,1.0602418,-2.4201469,1.5498434)" />
  </defs>
  <sodipodi:namedview
     pagecolor="#ffffff"
     bordercolor="#666666"
     borderopacity="1"
     objecttolerance="10"
     gridtolerance="10"
     guidetolerance="10"
     inkscape:pageopacity="0"
     inkscape:pageshadow="2"
     inkscape:window-width="1920"
     inkscape:window-height="986"
     id="namedview8"
     showgrid="false"
     inkscape:zoom="13.209302"
     inkscape:cx="84.276392"
     inkscape:cy="18.573267"
     inkscape:window-x="-11"
     inkscape:window-y="-11"
     inkscape:window-maximized="1"
     inkscape:current-layer="text94" />
  <g
     id="g4626"
     transform="matrix(1.1840831,0,0,1.1840831,0.55434996,-3.8010386)">
    <path
       inkscape:connector-curvature="0"
       style="fill:url(#linearGradient83);fill-opacity:1;stroke-width:0.0872857"
       id="path3801"
       d="m 14.30472,12.5 c 0,2.967714 -0.619729,5.237141 -1.859185,6.808284 -1.239457,1.571142 -2.9677134,2.356713 -5.1847702,2.356713 -2.2170565,0 -3.945313,-0.785571 -5.1847698,-2.356713 C 0.83653827,17.737141 0.21680987,15.467714 0.21680987,12.5 c 0,-2.9677134 0.6197284,-5.2371411 1.85918513,-6.8082835 1.2394568,-1.5711425 2.9677133,-2.3567137 5.1847698,-2.3567137 2.2170568,0 3.9453132,0.7855712 5.1847702,2.3567137 C 13.684991,7.2628589 14.30472,9.5322866 14.30472,12.5 Z m -5.36807,0 c 0,-2.7407705 -0.5586288,-4.1111558 -1.6758852,-4.1111558 -1.1172568,0 -1.6758852,1.3703853 -1.6758852,4.1111558 0,2.740771 0.5586284,4.111156 1.6758852,4.111156 1.1172564,0 1.6758852,-1.370385 1.6758852,-4.111156 z"
       class="st0" />
    <path
       inkscape:connector-curvature="0"
       style="fill:none;fill-opacity:1;stroke-width:0.0872857"
       id="path3812"
       d="m 14.30472,12.5 c 0,2.967714 -0.619729,5.237141 -1.859185,6.808284 -1.239457,1.571142 -2.9677134,2.356713 -5.1847702,2.356713 -2.2170565,0 -3.945313,-0.785571 -5.1847698,-2.356713 C 0.83653827,17.737141 0.21680987,15.467714 0.21680987,12.5 c 0,-2.9677134 0.6197284,-5.2371411 1.85918513,-6.8082835 1.2394568,-1.5711425 2.9677133,-2.3567137 5.1847698,-2.3567137 2.2170568,0 3.9453132,0.7855712 5.1847702,2.3567137 C 13.684991,7.2628589 14.30472,9.5322866 14.30472,12.5 Z m -5.36807,0 c 0,-2.7407705 -0.5586288,-4.1111558 -1.6758852,-4.1111558 -1.1172568,0 -1.6758852,1.3703853 -1.6758852,4.1111558 0,2.740771 0.5586284,4.111156 1.6758852,4.111156 1.1172564,0 1.6758852,-1.370385 1.6758852,-4.111156 z"
       class="st1" />
    <path
       sodipodi:nodetypes="cccccssscccc"
       inkscape:connector-curvature="0"
       style="fill:url(#SVGID_3_);stroke-width:0.0872857"
       id="path3823"
       d="m 12.445535,19.308284 c 2.364263,-3.785011 2.26309,-10.7948839 0,-13.6174404 C 11.76296,4.8258424 10.931128,4.2000041 9.9517826,3.8107099 8.9724373,4.1991312 8.1406045,4.8249696 7.4580306,5.6908436 6.4498808,6.968706 5.8519738,8.7083098 5.6634368,10.909655 5.8528468,9.2294054 6.3852895,8.3888442 7.2607648,8.3888442 8.3780212,8.3888442 8.93665,9.7592295 8.93665,12.5 c 0,2.740771 -0.5586288,4.111156 -1.6758852,4.111156 -0.8746026,0 -1.4070453,-0.840561 -1.597328,-2.520812 0.188537,2.201346 0.786444,3.940077 1.7945938,5.21794 0.6825739,0.865001 1.5144067,1.490839 2.493752,1.880133 0.9784724,-0.389294 1.8111774,-1.015132 2.4937524,-1.880133 z"
       class="st2" />
    <path
       inkscape:connector-curvature="0"
       style="fill:url(#SVGID_4_);stroke-width:0.0872857"
       id="path3834"
       d="M 7.0783378,17.577408 C 6.5101079,16.857302 6.0736795,15.988809 5.7664339,14.974549 c 0.2601113,1.787612 0.823104,3.232189 1.6915967,4.332862 0.6825739,0.865002 1.5144067,1.49084 2.493752,1.880133 C 10.679746,20.89863 11.326532,20.477911 11.89127,19.925393 9.8522768,19.841602 8.2470931,19.059519 7.0783378,17.577408 Z"
       class="st3" />
    <path
       inkscape:connector-curvature="0"
       style="fill:url(#SVGID_5_);stroke-width:0.0872857"
       id="path3845"
       d="M 7.2834592,18.537551 C 6.6471466,17.731904 6.1758037,16.740339 5.8659395,15.567219 c 0.023567,0.12308 0.048007,0.2444 0.075065,0.363109 8.729e-4,0.0052 0.00262,0.01135 0.00349,0.01659 0.019203,0.08466 0.039279,0.16846 0.060226,0.251382 0.00611,0.02619 0.013092,0.05237 0.019203,0.07855 0.019203,0.07506 0.040152,0.150131 0.060227,0.224324 0.00873,0.03229 0.01833,0.06458 0.027931,0.09601 0.020076,0.06982 0.041024,0.139657 0.062846,0.207739 0.010477,0.03404 0.021822,0.06809 0.033168,0.102126 0.021822,0.06634 0.043643,0.132673 0.066337,0.197264 0.012223,0.03405 0.02444,0.0672 0.03666,0.101253 0.023567,0.0646 0.047134,0.129182 0.071575,0.192027 0.00786,0.01919 0.015712,0.0384 0.023567,0.05761 0.047134,0.118714 0.096887,0.235671 0.1492587,0.350015 0.020948,0.04626 0.041024,0.09252 0.062846,0.137911 0.020948,0.04452 0.04277,0.0873 0.064591,0.13093 0.023567,0.04801 0.047134,0.09513 0.071574,0.142275 0.021822,0.04102 0.043643,0.08204 0.065465,0.122195 0.026186,0.04801 0.053244,0.09601 0.080302,0.143148 0.021822,0.03753 0.043643,0.07506 0.066337,0.112603 0.029677,0.04975 0.060227,0.09863 0.090777,0.146639 0.020948,0.03404 0.04277,0.0672 0.064591,0.100367 0.034913,0.05325 0.071574,0.105618 0.1082337,0.157987 0.01833,0.02705 0.036659,0.05412 0.055864,0.0803 0.055864,0.07768 0.1134709,0.154495 0.1719529,0.228689 0.6825739,0.865 1.5144067,1.490839 2.493752,1.880133 0.081172,-0.03229 0.1606062,-0.06634 0.2400362,-0.102126 0.02007,-0.0087 0.03928,-0.01746 0.05935,-0.02705 0.07681,-0.03578 0.153623,-0.07245 0.228689,-0.110857 0.0017,-8.74e-4 0.0027,-0.0017 0.0044,-0.0017 0.07768,-0.04015 0.153623,-0.08206 0.228689,-0.125691 0.01658,-0.0096 0.03316,-0.01921 0.04975,-0.02881 0.02968,-0.01746 0.05935,-0.03666 0.08903,-0.05499 C 9.3931221,20.436053 8.2034185,19.703726 7.2834274,18.53759 Z"
       class="st4" />
  </g>
  <g
     aria-label="Browser."
     style="font-style:normal;font-weight:normal;font-size:45.76360321px;line-height:1.25;font-family:sans-serif;letter-spacing:0px;word-spacing:0px;fill:#335eea;fill-opacity:1;stroke:none;stroke-width:1.14409006"
     id="text94"
     transform="translate(6)">
    <path
       d="M 20.256956,18.000849 V 3.7473934 h 4.85121 q 2.198054,0 3.437484,0.8811579 1.239431,0.8714748 1.239431,2.4401296 0,1.1426003 -0.726229,2.0237582 -0.726229,0.8714749 -1.955977,1.2491139 v 0.02905 q 1.510557,0.193661 2.401398,1.123235 0.890841,0.929573 0.890841,2.304566 0,1.917245 -1.374994,3.059845 -1.374994,1.142601 -3.67956,1.142601 z M 23.016627,5.8679822 V 9.605641 H 24.5175 q 1.113551,0 1.74295,-0.5228849 0.629398,-0.532568 0.629398,-1.4911903 0,-1.7235836 -2.459496,-1.7235836 z m 0,5.8679308 v 4.144347 h 1.897878 q 1.220065,0 1.897879,-0.561617 0.677814,-0.561617 0.677814,-1.558972 0,-2.023758 -2.672523,-2.023758 z"
       style="font-style:normal;font-variant:normal;font-weight:bold;font-stretch:normal;font-size:19.83089447px;font-family:'Malgun Gothic';-inkscape-font-specification:'Malgun Gothic, Bold';font-variant-ligatures:normal;font-variant-caps:normal;font-variant-numeric:normal;font-feature-settings:normal;text-align:start;writing-mode:lr-tb;text-anchor:start;fill:#335eea;fill-opacity:1;stroke-width:1.14409006"
       id="path4628"
       inkscape:connector-curvature="0" />
    <path
       d="m 38.84842,10.312504 q -0.532568,-0.3195408 -1.307213,-0.3195408 -1.01672,0 -1.626753,0.8327428 -0.610032,0.823059 -0.610032,2.217419 v 4.957724 H 32.60285 V 7.8239591 h 2.701572 V 9.779936 h 0.02905 q 0.745595,-2.1302719 2.682206,-2.1302719 0.551934,0 0.832743,0.1355628 z"
       style="font-style:normal;font-variant:normal;font-weight:bold;font-stretch:normal;font-size:19.83089447px;font-family:'Malgun Gothic';-inkscape-font-specification:'Malgun Gothic, Bold';font-variant-ligatures:normal;font-variant-caps:normal;font-variant-numeric:normal;font-feature-settings:normal;text-align:start;writing-mode:lr-tb;text-anchor:start;fill:#335eea;fill-opacity:1;stroke-width:1.14409006"
       id="path4630"
       inkscape:connector-curvature="0" />
    <path
       d="m 39.807041,12.975344 q 0,-2.498228 1.471825,-3.9410032 1.471824,-1.4524581 3.989418,-1.4524581 2.430446,0 3.834489,1.423409 1.413726,1.4137263 1.413726,3.7957573 0,2.478862 -1.462141,3.970052 -1.452458,1.481507 -3.941003,1.481507 -2.44013,0 -3.873222,-1.423409 -1.433092,-1.433092 -1.433092,-3.853855 z m 2.730622,-0.03873 q 0,3.20509 2.662839,3.20509 2.56601,0 2.56601,-3.282555 0,-3.1760416 -2.575693,-3.1760416 -1.258797,0 -1.955976,0.8714746 -0.69718,0.861792 -0.69718,2.382032 z"
       style="font-style:normal;font-variant:normal;font-weight:bold;font-stretch:normal;font-size:19.83089447px;font-family:'Malgun Gothic';-inkscape-font-specification:'Malgun Gothic, Bold';font-variant-ligatures:normal;font-variant-caps:normal;font-variant-numeric:normal;font-feature-settings:normal;text-align:start;writing-mode:lr-tb;text-anchor:start;fill:#335eea;fill-opacity:1;stroke-width:1.14409006"
       id="path4632"
       inkscape:connector-curvature="0" />
    <path
       d="M 66.871177,7.8239591 63.908163,18.000849 h -2.827452 l -1.675168,-6.352084 q -0.12588,-0.464786 -0.164612,-1.191015 h -0.0581 q -0.0581,0.726229 -0.193661,1.171649 l -1.801048,6.37145 H 54.399404 L 51.465438,7.8239591 h 2.769354 l 1.597704,6.9427499 q 0.125879,0.561617 0.154929,1.065136 h 0.0581 q 0.02905,-0.493836 0.174295,-1.103868 l 1.936611,-6.9040179 h 2.556326 l 1.7139,6.9524329 q 0.06778,0.280808 0.145246,1.074819 h 0.06778 q 0.02905,-0.416372 0.164612,-1.074819 L 64.3439,7.8239591 Z"
       style="font-style:normal;font-variant:normal;font-weight:bold;font-stretch:normal;font-size:19.83089447px;font-family:'Malgun Gothic';-inkscape-font-specification:'Malgun Gothic, Bold';font-variant-ligatures:normal;font-variant-caps:normal;font-variant-numeric:normal;font-feature-settings:normal;text-align:start;writing-mode:lr-tb;text-anchor:start;fill:#335eea;fill-opacity:1;stroke-width:1.14409006"
       id="path4634"
       inkscape:connector-curvature="0" />
    <path
       d="m 68.129974,15.386424 q 1.510556,0.948939 2.98238,0.948939 1.897879,0 1.897879,-1.074818 0,-0.745596 -1.500873,-1.258798 -2.188371,-0.735912 -2.779037,-1.442775 -0.590666,-0.716546 -0.590666,-1.830097 0,-1.4718239 1.200699,-2.3045666 1.200698,-0.8424257 3.088894,-0.8424257 1.316895,0 2.63379,0.4163713 v 2.198053 q -1.191015,-0.7068626 -2.604741,-0.7068626 -0.745595,0 -1.200699,0.2808085 -0.455103,0.2808081 -0.455103,0.7455951 0,0.764961 1.26848,1.210382 1.442775,0.522885 2.120589,0.881158 0.677813,0.34859 1.055452,0.958622 0.37764,0.610032 0.37764,1.433092 0,1.549289 -1.239431,2.401397 -1.229748,0.852109 -3.253506,0.852109 -1.704218,0 -3.001747,-0.542251 z"
       style="font-style:normal;font-variant:normal;font-weight:bold;font-stretch:normal;font-size:19.83089447px;font-family:'Malgun Gothic';-inkscape-font-specification:'Malgun Gothic, Bold';font-variant-ligatures:normal;font-variant-caps:normal;font-variant-numeric:normal;font-feature-settings:normal;text-align:start;writing-mode:lr-tb;text-anchor:start;fill:#335eea;fill-opacity:1;stroke-width:1.14409006"
       id="path4636"
       inkscape:connector-curvature="0" />
    <path
       d="m 86.50841,13.672524 h -6.797504 q 0.164612,2.595058 2.943648,2.595058 1.694535,0 3.021113,-0.890841 v 2.052808 q -1.413726,0.823059 -3.631145,0.823059 -2.372348,0 -3.698927,-1.374993 -1.316895,-1.374994 -1.316895,-3.844173 0,-2.420763 1.413726,-3.9313198 1.423409,-1.5202395 3.553681,-1.5202395 2.130272,0 3.321287,1.3072123 1.191016,1.307212 1.191016,3.592413 z m -2.546643,-1.771999 q 0,-2.4207637 -1.994709,-2.4207637 -0.832743,0 -1.471825,0.6584477 -0.629398,0.658448 -0.784327,1.762316 z"
       style="font-style:normal;font-variant:normal;font-weight:bold;font-stretch:normal;font-size:19.83089447px;font-family:'Malgun Gothic';-inkscape-font-specification:'Malgun Gothic, Bold';font-variant-ligatures:normal;font-variant-caps:normal;font-variant-numeric:normal;font-feature-settings:normal;text-align:start;writing-mode:lr-tb;text-anchor:start;fill:#335eea;fill-opacity:1;stroke-width:1.14409006"
       id="path4638"
       inkscape:connector-curvature="0" />
    <path
       d="m 94.816467,10.312504 q -0.532568,-0.3195408 -1.307212,-0.3195408 -1.016721,0 -1.626753,0.8327428 -0.610033,0.823059 -0.610033,2.217419 v 4.957724 H 88.570897 V 7.8239591 h 2.701572 V 9.779936 h 0.02905 q 0.745595,-2.1302719 2.682206,-2.1302719 0.551934,0 0.832743,0.1355628 z"
       style="font-style:normal;font-variant:normal;font-weight:bold;font-stretch:normal;font-size:19.83089447px;font-family:'Malgun Gothic';-inkscape-font-specification:'Malgun Gothic, Bold';font-variant-ligatures:normal;font-variant-caps:normal;font-variant-numeric:normal;font-feature-settings:normal;text-align:start;writing-mode:lr-tb;text-anchor:start;fill:#335eea;fill-opacity:1;stroke-width:1.14409006"
       id="path4640"
       inkscape:connector-curvature="0" />
  </g>
</svg>
